<?xml version="1.0" encoding="UTF-8" standalone="no"?>
<svg
   id="Ebene_1"
   viewBox="0 0 1674.6501 502.39998"
   version="1.1"
   sodipodi:docname="PS_Logo_gruen_RGB.svg"
   width="1674.65"
   height="502.39999"
   inkscape:version="1.4.2 (ebf0e940, 2025-05-08)"
   xmlns:inkscape="http://www.inkscape.org/namespaces/inkscape"
   xmlns:sodipodi="http://sodipodi.sourceforge.net/DTD/sodipodi-0.dtd"
   xmlns="http://www.w3.org/2000/svg"
   xmlns:svg="http://www.w3.org/2000/svg">
  <defs
     id="defs5" />
  <sodipodi:namedview
     id="namedview5"
     pagecolor="#ffffff"
     bordercolor="#000000"
     borderopacity="0.25"
     inkscape:showpageshadow="2"
     inkscape:pageopacity="0.0"
     inkscape:pagecheckerboard="0"
     inkscape:deskcolor="#d1d1d1"
     inkscape:zoom="0.41989241"
     inkscape:cx="838.30998"
     inkscape:cy="252.44562"
     inkscape:window-width="992"
     inkscape:window-height="1187"
     inkscape:window-x="3060"
     inkscape:window-y="67"
     inkscape:window-maximized="0"
     inkscape:current-layer="Ebene_1" />
  <path
     d="m 1471.4,367.62 v -2.06 c 0,-22.63 16.46,-30.86 31.74,-30.86 15.28,0 29.09,8.23 29.09,28.8 v 4.11 h -60.83 z m 32.91,93.45 c 26.45,0 50.26,-9.99 62.01,-33.5 L 1538.7,411.7 c -7.93,11.46 -20.57,19.4 -32.62,19.4 -19.1,0 -34.68,-11.17 -34.68,-30.27 v -8.23 h 96.69 v -29.09 c 0,-39.97 -32.33,-59.07 -64.95,-59.07 -37.33,0 -69.06,23.51 -69.06,65.83 v 29.39 c 0,41.14 33.21,61.42 70.24,61.42 m -154.94,-0.01 c 32.62,0 64.65,-18.81 64.65,-58.78 v -1.47 h -34.97 v 1.47 c 0,20.57 -14.99,28.8 -29.68,28.8 -19.1,0 -32.91,-11.17 -32.91,-30.27 v -35.27 c 0,-22.63 16.46,-30.86 31.74,-30.86 15.28,0 30.86,8.23 30.86,28.8 v 2.94 h 34.97 v -2.94 c 0,-39.97 -33.21,-59.07 -65.83,-59.07 -37.33,0 -69.06,23.51 -69.06,65.83 v 29.39 c 0,39.97 33.21,61.42 70.24,61.42 m -133.78,-3.51 h 35.85 V 307.08 h -35.85 z m -109.15,0.58 h 35.56 l 52.9,-151.05 h -35.56 l -33.5,104.62 h -0.59 l -33.5,-104.62 h -38.79 l 53.49,151.05 z M 942.1,457.55 h 35.85 v -76.99 c 0,-27.92 20.28,-43.5 47.31,-43.5 5,0 8.82,0 13.52,0.88 v -32.91 c -3.82,-0.88 -8.23,-0.88 -12.05,-0.88 -17.92,0 -40.26,12.05 -49.08,27.92 h -0.59 V 307.09 H 942.09 V 457.56 Z M 818.55,367.62 v -2.06 c 0,-22.63 16.46,-30.86 31.74,-30.86 15.28,0 29.09,8.23 29.09,28.8 v 4.11 h -60.83 z m 32.92,93.45 c 26.45,0 50.26,-9.99 62.01,-33.5 L 885.86,411.7 c -7.94,11.46 -20.57,19.4 -32.62,19.4 -19.1,0 -34.68,-11.17 -34.68,-30.27 v -8.23 h 96.69 v -29.09 c 0,-39.97 -32.33,-59.07 -64.95,-59.07 -37.32,0 -69.06,23.51 -69.06,65.83 v 29.39 c 0,41.14 33.21,61.42 70.24,61.42 m -158.03,-0.3 c 30.86,0 66.42,-16.46 66.42,-51.13 0,-22.63 -14.69,-37.03 -40.26,-42.03 l -22.63,-4.41 c -15.57,-2.94 -28.5,-4.41 -28.5,-14.99 0,-11.46 10.28,-16.75 24.39,-16.75 14.11,0 24.69,4.41 33.5,14.69 l 25.86,-17.63 c -12.63,-17.92 -32.03,-24.68 -59.07,-24.68 -32.03,0 -59.66,17.92 -59.66,49.37 0,22.63 16.46,34.68 41.14,39.09 l 19.69,3.53 c 20.28,3.53 28.21,6.17 28.21,17.92 0,13.52 -14.99,18.51 -29.68,18.51 -17.05,0 -32.03,-7.35 -41.44,-19.69 l -25.27,19.1 c 14.99,22.04 40.26,29.09 67.3,29.09"
     fill="#0e8045"
     id="path1" />
  <path
     d="m 1602.64,173.53 c -16.75,0 -27.04,-6.47 -27.04,-19.1 0,-12.63 9.99,-18.51 25.27,-18.51 h 35.27 v 7.35 c 0,16.16 -4.7,30.27 -33.5,30.27 m -9.69,28.2 c 19.4,0 30.86,-2.94 44.08,-16.75 h 0.59 c 0.29,2.35 0.88,11.46 1.47,13.81 h 35.56 c -1.76,-3.23 -2.64,-25.57 -2.64,-32.33 V 93.3 c 0,-36.74 -30.86,-47.9 -64.36,-47.9 -28.22,0 -59.66,11.17 -59.66,44.08 v 4.12 h 32.33 v -5.29 c 0,-9.7 11.46,-14.99 27.04,-14.99 18.22,0 28.8,6.76 28.8,22.63 v 13.81 h -39.96 c -29.09,0 -55.55,17.34 -55.55,46.44 0,29.1 21.16,45.55 52.31,45.55 m -206.58,-2.94 h 35.85 v -84.34 c 0,-25.57 11.46,-37.62 31.15,-37.62 18.22,0 27.92,12.05 27.92,34.68 v 87.28 h 35.85 v -96.39 c 0,-35.86 -18.81,-57.01 -52.6,-57.01 -16.75,0 -32.62,7.05 -42.62,21.45 h -0.59 V 48.35 h -34.97 v 150.47 z m -95.69,-26.75 c -18.51,0 -32.62,-10.87 -32.62,-29.09 v -37.03 c 0,-21.75 16.46,-29.68 31.45,-29.68 18.52,0 32.62,10.58 32.62,28.8 v 37.33 c 0,21.74 -16.46,29.68 -31.45,29.68 m 0,30.26 c 33.21,0 67.89,-22.34 67.89,-63.18 v -30.86 c 0,-38.5 -32.62,-62.59 -69.06,-62.59 -33.21,0 -67.89,22.33 -67.89,63.18 v 34.38 c 0,38.5 32.62,59.07 69.06,59.07 m -156.84,-0.29 c 30.86,0 66.42,-16.46 66.42,-51.14 0,-22.63 -14.69,-37.03 -40.26,-42.02 l -22.63,-4.41 c -15.58,-2.94 -28.51,-4.41 -28.51,-14.99 0,-11.46 10.29,-16.75 24.39,-16.75 14.1,0 24.69,4.41 33.5,14.69 l 25.86,-17.63 c -12.64,-17.92 -32.03,-24.69 -59.07,-24.69 -32.04,0 -59.66,17.93 -59.66,49.37 0,22.63 16.46,34.68 41.14,39.09 l 19.69,3.52 c 20.28,3.53 28.21,6.17 28.21,17.93 0,13.52 -14.99,18.51 -29.68,18.51 -17.05,0 -32.03,-7.35 -41.44,-19.69 l -25.27,19.1 c 14.99,22.04 40.26,29.09 67.3,29.09 m -177.08,-3.21 h 35.85 v -77 c 0,-27.92 20.28,-43.49 47.31,-43.49 5,0 8.82,0 13.52,0.88 V 46.29 c -3.82,-0.88 -8.23,-0.88 -12.05,-0.88 -17.92,0 -40.26,12.05 -49.08,27.92 h -0.59 V 48.35 H 956.75 V 198.82 Z M 833.22,108.88 v -2.06 c 0,-22.63 16.46,-30.86 31.74,-30.86 15.28,0 29.09,8.23 29.09,28.8 v 4.11 h -60.83 z m 32.91,93.45 c 26.45,0 50.26,-9.99 62.01,-33.5 l -27.62,-15.87 c -7.93,11.46 -20.57,19.39 -32.62,19.39 -19.1,0 -34.68,-11.17 -34.68,-30.27 v -8.23 h 96.69 v -29.09 c 0,-39.97 -32.33,-59.07 -64.95,-59.07 -37.32,0 -69.06,23.51 -69.06,65.83 v 29.39 c 0,41.15 33.21,61.42 70.24,61.42 M 705.21,172.06 C 686.7,172.06 672,161.19 672,142.97 V 108 c 0,-21.74 17.05,-31.74 32.03,-31.74 18.51,0 32.62,10.58 32.62,28.8 v 37.33 c 0,21.74 -16.46,29.68 -31.45,29.68 m -69.06,83.45 h 35.85 v -71.71 h 0.88 c 7.64,9.99 21.45,18.51 38.2,18.51 33.51,0 62.01,-20.28 62.01,-61.13 v -36.44 c 0,-38.5 -26.45,-59.37 -59.36,-59.37 -13.52,0 -30.56,6.17 -42.32,20.28 h -0.3 V 48.32 h -34.97 v 207.19 z"
     fill="#0e8045"
     id="path2" />
  <path
     d="m 1233.26,286.6 c 12.45,0 22.55,-10.09 22.55,-22.55 0,-12.46 -10.09,-22.55 -22.55,-22.55 -12.46,0 -22.55,10.09 -22.55,22.55 0,12.46 10.1,22.55 22.55,22.55"
     fill="#0e8045"
     id="path3" />
  <path
     d="m 477.38,253.29 c -30.43,-71.38 -105.01,-76.64 -119.42,-76.4 -9.48,0.32 -18.31,0.82 -26.56,2.24 -48.29,8.35 -76.16,34.34 -92.17,59.34 -21.21,32.82 -36.33,45.84 -50.06,55 -45.69,27.9 -97.12,7.51 -125.48,-15.83 C -3.05,219.65 26.48,141.32 29.26,134.6 c 0,0 -6.21,12.04 -8.85,17.83 C 7.29,182.85 0,216.39 0,251.63 0,390.13 112.27,502.4 250.77,502.4 c 68.58,0 130.74,-27.55 176.02,-72.16 9.38,-9.99 42.28,-42.33 52.59,-83.14 15.05,-50.27 0,-89.22 -1.98,-93.8"
     fill="#0e8045"
     id="path4" />
  <path
     d="M 501.28,241.82 C 496.57,107.47 386.19,0 250.69,0 221.91,0 194.25,4.86 168.5,13.79 c -6.31,2.33 -26.87,9.02 -47.67,22.56 0.04,-0.02 0.07,-0.05 0.11,-0.06 -37.73,22.97 -51.34,45.03 -58.1,58.61 -6.75,13.58 -10.19,33.05 -8.52,51.24 3.67,30.89 42.37,89.72 119.39,52.82 13.39,-6.4 35.64,-22.74 54.2,-53.89 17.54,-29.44 43.2,-43.45 66.39,-51.99 8.84,-2.9 45.44,-18 107.36,16.46 5.5,3.07 47.82,26.86 71.85,65.51 1.91,2.7 14.97,21.26 24.14,52.58 0.95,2.71 3.62,14.17 3.64,14.23 v 0 -0.02 z"
     fill="#0e8045"
     id="path5" />
</svg>
